<svg width="142" height="45" viewBox="0 0 142 45" fill="none" xmlns="http://www.w3.org/2000/svg">
<path d="M38.251 0.5H6.74902C3.29733 0.500132 0.500132 3.29733 0.5 6.74902V38.251C0.500132 41.7027 3.29733 44.4999 6.74902 44.5H38.251C41.7027 44.4999 44.4999 41.7027 44.5 38.251V6.74902C44.4999 3.29733 41.7027 0.500132 38.251 0.5Z" fill="#FF6600" stroke="white"/>
<path d="M34.1016 7.99805H29.6191L22.5 22.2363L15.3809 7.82227H10.8984L20.7422 25.752V37.7051H24.2578V25.752L34.1016 7.99805Z" fill="white"/>
<path d="M55.2642 18.5V3.95455H58.3395V9.95597H64.5824V3.95455H67.6506V18.5H64.5824V12.4915H58.3395V18.5H55.2642ZM73.4932 18.5H70.1977L75.219 3.95455H79.1821L84.1963 18.5H80.9009L77.2574 7.27841H77.1438L73.4932 18.5ZM73.2872 12.7827H81.0713V15.1832H73.2872V12.7827ZM98.8972 9.04688H95.7864C95.7296 8.64441 95.6136 8.28693 95.4384 7.97443C95.2632 7.6572 95.0383 7.38731 94.7637 7.16477C94.4891 6.94223 94.1719 6.77178 93.812 6.65341C93.4569 6.53504 93.071 6.47585 92.6543 6.47585C91.9015 6.47585 91.2457 6.66288 90.687 7.03693C90.1283 7.40625 89.6951 7.94602 89.3873 8.65625C89.0795 9.36174 88.9256 10.2187 88.9256 11.2273C88.9256 12.2642 89.0795 13.1354 89.3873 13.8409C89.6998 14.5464 90.1354 15.0791 90.6941 15.4389C91.2528 15.7988 91.8991 15.9787 92.633 15.9787C93.045 15.9787 93.4261 15.9242 93.7765 15.8153C94.1316 15.7064 94.4465 15.5478 94.7211 15.3395C94.9957 15.1264 95.223 14.8684 95.4029 14.5653C95.5876 14.2623 95.7154 13.9167 95.7864 13.5284L98.8972 13.5426C98.8167 14.2102 98.6155 14.8542 98.2935 15.4744C97.9763 16.09 97.5478 16.6416 97.008 17.1293C96.473 17.6122 95.8338 17.9957 95.0904 18.2798C94.3518 18.5592 93.5161 18.6989 92.5833 18.6989C91.286 18.6989 90.1259 18.4053 89.1032 17.8182C88.0852 17.2311 87.2803 16.3812 86.6884 15.2685C86.1013 14.1558 85.8077 12.8087 85.8077 11.2273C85.8077 9.6411 86.106 8.29167 86.7026 7.17898C87.2992 6.06629 88.1089 5.21875 89.1316 4.63636C90.1543 4.04924 91.3049 3.75568 92.5833 3.75568C93.4261 3.75568 94.2074 3.87405 94.9271 4.1108C95.6515 4.34754 96.2931 4.69318 96.8518 5.14773C97.4105 5.59754 97.865 6.14915 98.2154 6.80256C98.5705 7.45597 98.7978 8.20407 98.8972 9.04688ZM101.902 18.5V3.95455H104.978V10.3679H105.17L110.404 3.95455H114.09L108.692 10.4673L114.154 18.5H110.475L106.491 12.5199L104.978 14.3665V18.5H101.902ZM116.492 18.5V3.95455H126.293V6.49006H119.567V9.95597H125.788V12.4915H119.567V15.9645H126.321V18.5H116.492ZM129.538 18.5V3.95455H135.276C136.375 3.95455 137.312 4.15104 138.089 4.54403C138.87 4.93229 139.464 5.4839 139.871 6.19886C140.283 6.90909 140.489 7.74479 140.489 8.70597C140.489 9.67187 140.281 10.5028 139.864 11.1989C139.448 11.8902 138.844 12.4205 138.053 12.7898C137.267 13.1591 136.316 13.3438 135.198 13.3438H131.356V10.8722H134.701C135.288 10.8722 135.776 10.7917 136.164 10.6307C136.552 10.4697 136.841 10.2282 137.031 9.90625C137.225 9.58428 137.322 9.18419 137.322 8.70597C137.322 8.22301 137.225 7.81581 137.031 7.48438C136.841 7.15294 136.55 6.90199 136.157 6.73153C135.769 6.55634 135.279 6.46875 134.687 6.46875H132.613V18.5H129.538ZM137.393 11.8807L141.008 18.5H137.613L134.076 11.8807H137.393ZM67.4304 25.9545V40.5H64.7741L58.446 31.3452H58.3395V40.5H55.2642V25.9545H57.9631L64.2415 35.1023H64.3693V25.9545H67.4304ZM70.7712 40.5V25.9545H80.5724V28.4901H73.8465V31.956H80.0681V34.4915H73.8465V37.9645H80.6008V40.5H70.7712ZM87.0915 40.5L82.9295 25.9545H86.2889L88.6966 36.0611H88.8173L91.4736 25.9545H94.35L96.9991 36.0824H97.127L99.5347 25.9545H102.894L98.7321 40.5H95.7349L92.9651 30.9901H92.8514L90.0886 40.5H87.0915ZM113.094 30.1378C113.037 29.5649 112.793 29.1198 112.362 28.8026C111.931 28.4853 111.347 28.3267 110.608 28.3267C110.106 28.3267 109.682 28.3977 109.337 28.5398C108.991 28.6771 108.726 28.8688 108.541 29.1151C108.361 29.3613 108.271 29.6406 108.271 29.9531C108.262 30.2135 108.316 30.4408 108.435 30.6349C108.558 30.8291 108.726 30.9972 108.939 31.1392C109.152 31.2765 109.398 31.3973 109.678 31.5014C109.957 31.6009 110.255 31.6861 110.573 31.7571L111.879 32.0696C112.514 32.2116 113.096 32.401 113.627 32.6378C114.157 32.8745 114.616 33.1657 115.004 33.5114C115.393 33.857 115.693 34.2642 115.906 34.733C116.124 35.2017 116.235 35.7391 116.24 36.3452C116.235 37.2353 116.008 38.0071 115.558 38.6605C115.113 39.3092 114.469 39.8134 113.627 40.1733C112.788 40.5284 111.778 40.706 110.594 40.706C109.42 40.706 108.397 40.526 107.526 40.1662C106.659 39.8063 105.982 39.2737 105.494 38.5682C105.012 37.858 104.758 36.9796 104.735 35.9332H107.71C107.744 36.4209 107.883 36.8281 108.129 37.1548C108.38 37.4768 108.714 37.7206 109.131 37.8864C109.552 38.0473 110.028 38.1278 110.558 38.1278C111.079 38.1278 111.531 38.0521 111.915 37.9006C112.303 37.7491 112.604 37.5384 112.817 37.2685C113.03 36.9986 113.137 36.6884 113.137 36.3381C113.137 36.0114 113.039 35.7367 112.845 35.5142C112.656 35.2917 112.377 35.1023 112.007 34.946C111.643 34.7898 111.195 34.6477 110.665 34.5199L109.081 34.1222C107.855 33.8239 106.887 33.3575 106.176 32.723C105.466 32.0885 105.113 31.2339 105.118 30.1591C105.113 29.2784 105.348 28.509 105.821 27.8509C106.299 27.1927 106.955 26.679 107.788 26.3097C108.622 25.9403 109.569 25.7557 110.629 25.7557C111.709 25.7557 112.651 25.9403 113.456 26.3097C114.266 26.679 114.896 27.1927 115.345 27.8509C115.795 28.509 116.027 29.2713 116.041 30.1378H113.094Z" fill="#050505"/>
</svg>